<svg xmlns="http://www.w3.org/2000/svg" width="1em" height="1em" viewBox='0 0 24 24' fill="currentColor" >
    <path d="M11.5 15.769a3.27 3.27 0 0 1-3.02-2.018 3.27 3.27 0 0 1 .709-3.563 3.27 3.27 0 0 1 3.563-.709 3.27 3.27 0 0 1 2.018 3.02c-.001.867-.346 1.698-.958 2.311s-1.444.958-2.311.958zm0-5.231a1.96 1.96 0 0 0-1.812 1.211 1.96 1.96 0 0 0 .425 2.138 1.96 1.96 0 0 0 2.138.425 1.96 1.96 0 0 0 1.211-1.812c0-.52-.207-1.019-.575-1.386s-.866-.575-1.386-.575zM11.936 21h-.872c-.52 0-1.019-.207-1.386-.575s-.575-.866-.575-1.387c.001-.063-.017-.125-.051-.177s-.083-.094-.141-.119h-.007c-.053-.022-.111-.027-.166-.016s-.107.039-.147.079c-.371.366-.87.574-1.391.577s-1.023-.197-1.399-.559l-.61-.616a1.96 1.96 0 0 1-.576-1.389c0-.258.051-.514.15-.752a1.96 1.96 0 0 1 .427-.637.32.32 0 0 0 .067-.343c-.021-.054-.058-.101-.106-.134s-.105-.051-.163-.052a1.97 1.97 0 0 1-1.403-.568A1.97 1.97 0 0 1 3 12.936v-.872c0-.52.207-1.019.575-1.386s.866-.575 1.387-.575c.063.001.125-.016.177-.051s.094-.083.118-.141v-.007a.29.29 0 0 0-.063-.314 1.96 1.96 0 0 1-.592-1.391A1.96 1.96 0 0 1 5.176 6.8l.618-.618c.373-.358.87-.557 1.387-.557s1.014.2 1.387.557a.32.32 0 0 0 .349.075.29.29 0 0 0 .185-.269 1.97 1.97 0 0 1 .567-1.403A1.97 1.97 0 0 1 11.064 4h.872c.52 0 1.019.207 1.386.575s.575.866.575 1.387c-.003.061.013.122.046.174s.081.093.138.116.116.031.175.021.114-.036.159-.076c.182-.187.4-.335.64-.436s.498-.153.759-.153a1.95 1.95 0 0 1 1.387.575l.615.61c.182.182.327.398.425.636s.149.493.149.751-.051.513-.149.751-.243.454-.425.636a.3.3 0 0 0-.079.336l.005.012a.29.29 0 0 0 .268.183 1.97 1.97 0 0 1 1.405.568A1.97 1.97 0 0 1 20 12.064v.872c0 .52-.207 1.019-.575 1.386s-.866.575-1.387.575c-.061-.003-.122.013-.174.046s-.093.081-.116.138-.03.116-.021.175.036.114.076.159a1.96 1.96 0 0 1 .59 1.392 1.96 1.96 0 0 1-.147.757c-.099.24-.244.458-.428.641l-.61.615c-.373.358-.87.557-1.387.557s-1.014-.2-1.387-.557a.3.3 0 0 0-.336-.079.31.31 0 0 0-.138.107c-.035.048-.054.106-.057.165a1.97 1.97 0 0 1-.569 1.403 1.97 1.97 0 0 1-.64.431c-.24.1-.497.152-.757.152zm-2.449-3.428a1.63 1.63 0 0 1 .923 1.442.66.66 0 0 0 .184.476.66.66 0 0 0 .469.202h.872c.173 0 .34-.069.462-.191s.192-.289.192-.462a1.63 1.63 0 0 1 1.003-1.507 1.59 1.59 0 0 1 1.738.349c.06.064.133.116.213.152s.167.055.255.057a.66.66 0 0 0 .476-.19l.616-.61c.123-.123.192-.29.192-.463s-.069-.34-.192-.463c-.224-.226-.377-.511-.441-.822s-.036-.634.081-.93v-.012l.006-.015a1.59 1.59 0 0 1 .587-.717c.263-.175.572-.269.887-.268a.66.66 0 0 0 .476-.185.66.66 0 0 0 .201-.469v-.872c0-.173-.069-.34-.192-.462s-.289-.192-.462-.192c-.32.004-.633-.088-.9-.263s-.476-.427-.598-.722a1.6 1.6 0 0 1 .344-1.768c.066-.062.118-.136.154-.219a.67.67 0 0 0 .056-.262c0-.086-.017-.171-.049-.25s-.081-.151-.142-.212l-.61-.615c-.061-.061-.133-.109-.212-.142s-.165-.05-.25-.049-.171.016-.251.05-.152.082-.212.143c-.226.224-.512.377-.823.441s-.634.036-.93-.08l-.015-.003-.015-.006a1.59 1.59 0 0 1-.985-1.474.66.66 0 0 0-.185-.475.66.66 0 0 0-.469-.201h-.872c-.173 0-.34.069-.462.192s-.191.289-.191.462a1.6 1.6 0 0 1-.998 1.503 1.62 1.62 0 0 1-1.751-.342.66.66 0 0 0-.467-.207.66.66 0 0 0-.475.188l-.618.618c-.061.061-.109.133-.142.212s-.05.164-.05.25.017.171.05.25.081.151.142.212a1.6 1.6 0 0 1 .364 1.76c-.012.03-.026.059-.041.087-.132.271-.337.5-.591.662a1.63 1.63 0 0 1-.851.253.66.66 0 0 0-.476.184.66.66 0 0 0-.202.469v.872c0 .173.069.34.192.462s.289.192.462.192a1.6 1.6 0 0 1 1.498.989l.005.011.004.012a1.63 1.63 0 0 1-.349 1.744c-.064.061-.116.134-.151.216s-.053.169-.053.258.016.172.049.251.081.152.142.213l.615.61a.67.67 0 0 0 .925 0c.224-.229.511-.386.825-.451s.64-.034.936.089c.027.012.054.026.079.041z"/>
</svg>