<svg xmlns="http://www.w3.org/2000/svg" width="1em" height="1em" viewBox='0 0 33 33' fill="currentColor">
    <path d="M27.47 10.059l-6.875-5.529c-2.373-1.908-5.816-1.908-8.189 0L5.53 10.059c-1.548 1.245-2.436 3.098-2.436 5.084v8.242a6.54 6.54 0 0 0 6.531 6.527h3.781v-6.527c0-1.703 1.387-3.089 3.094-3.089s3.094 1.386 3.094 3.089v6.527h3.781a6.54 6.54 0 0 0 6.531-6.527v-8.242a6.49 6.49 0 0 0-2.436-5.084zm.374 13.326c0 2.461-2.005 4.463-4.469 4.463h-1.719v-4.463c0-2.84-2.313-5.153-5.156-5.153s-5.156 2.312-5.156 5.153v4.463H9.625c-2.464 0-4.469-2.003-4.469-4.463v-8.242a4.44 4.44 0 0 1 1.665-3.476l6.875-5.529c1.625-1.305 3.982-1.305 5.606 0l6.875 5.529a4.44 4.44 0 0 1 1.665 3.476v8.242h.001z" />
</svg>