<svg xmlns="http://www.w3.org/2000/svg" width="1em" height="1em" viewBox='0 0 20 20' fill="currentColor" >
    <path d="M7.058 6.275c-.244-.244-.244-.64 0-.884l2.5-2.5c.244-.244.64-.244.884 0l2.5 2.5c.244.244.244.64 0 .884-.122.122-.282.183-.442.183a.62.62 0 0 1-.442-.183l-1.433-1.433v4.325c0 .345-.28.625-.625.625s-.625-.28-.625-.625V4.843L7.943 6.276c-.245.243-.64.243-.884-.001zm7.108 2.267c-.345 0-.625.28-.625.625s.28.625.625.625a2.71 2.71 0 0 1 2.708 2.708v.833a2.71 2.71 0 0 1-2.708 2.708H5.833a2.71 2.71 0 0 1-2.708-2.708V12.5a2.71 2.71 0 0 1 2.708-2.708c.345 0 .625-.28.625-.625s-.28-.625-.625-.625c-2.182 0-3.958 1.776-3.958 3.958v.833c0 2.182 1.776 3.958 3.958 3.958h8.333c2.182 0 3.958-1.776 3.958-3.958V12.5c0-2.182-1.776-3.958-3.958-3.958zM15 12.5c0-.46-.373-.833-.833-.833s-.833.373-.833.833.373.833.833.833S15 12.96 15 12.5z" />
</svg>