<svg xmlns="http://www.w3.org/2000/svg" width="1em" height="1em" viewBox='0 0 24 23' fill="currentColor" >
    <path d="M18.501 2.396h-13c-1.103 0-2 .86-2 1.917v1.999c0 .383.156.745.439 1.017l5.121 4.908a1.4 1.4 0 0 1 .439 1.017v6.872a.48.48 0 0 0 .276.428c.071.034.147.051.224.051.106 0 .212-.033.3-.096l4-2.875c.126-.09.2-.233.2-.383v-3.997a1.4 1.4 0 0 1 .439-1.017l5.121-4.908a1.4 1.4 0 0 0 .439-1.017V4.312c.002-1.057-.895-1.917-1.998-1.917zm-13 .958h13c.551 0 1 .43 1 .958v1.917h-15V4.312c0-.529.449-.958 1-.958zm8.732 8.203a2.33 2.33 0 0 0-.732 1.694v3.758l-3 2.156v-5.914a2.33 2.33 0 0 0-.732-1.694L5.208 7.187h13.586l-4.561 4.371z"  />
</svg>