<svg xmlns="http://www.w3.org/2000/svg" width="1em" height="1em" viewBox="0 0 28 28" fill="currentColor">
    <g>
        <path fill-rule="evenodd" d="M22.85 10.221a10.75 10.75 0 0 0-2.966-5.601C15.675.405 8.848.405 4.638 4.62 3.354 5.906 2.22 7.809 1.724 9.922c-.499 2.126-.361 4.514.987 6.686l.142.232c.014.024.021.037.024.043.006.02.005.026.005.036-.001.005-.003.015-.007.032a7.83 7.83 0 0 1-.052.208l-.008.03c-.155.598-.282 1.09-.357 1.487s-.119.803-.039 1.197c.228 1.123 1.105 2.002 2.229 2.231.394.08.798.037 1.197-.039s.888-.202 1.485-.357l.03-.008.207-.052c.017-.004.027-.006.032-.007.023 0 .027.002.034.005s.02.01.044.024a11.97 11.97 0 0 1 .233.142c.723.447 1.476.76 2.239.958a9.09 9.09 0 0 0 .954 1.124c1.04 1.042 2.63 1.987 4.4 2.411 1.783.427 3.813.337 5.651-.8l.184-.112a8.2 8.2 0 0 1 .149.038l.029.008c.488.127.897.233 1.229.295s.691.104 1.045.032a2.51 2.51 0 0 0 1.956-1.958c.072-.354.032-.71-.032-1.045s-.168-.741-.295-1.23l-.008-.03-.038-.15c.023-.04.057-.094.112-.183 1.136-1.83 1.25-3.841.832-5.623-.415-1.769-1.364-3.362-2.441-4.441-.325-.325-.668-.62-1.027-.886zm-4.204-4.365c-3.526-3.531-9.243-3.531-12.77 0-1.062 1.063-2.03 2.679-2.449 4.466-.416 1.774-.283 3.665.77 5.363l.03.049c.1.161.209.335.271.493a1.77 1.77 0 0 1 .127.833 2.89 2.89 0 0 1-.098.495l-.011.042c-.165.636-.276 1.07-.339 1.402s-.055.469-.044.525c.089.436.429.776.863.865.055.011.187.02.523-.044s.765-.175 1.4-.34l.042-.011c.152-.04.326-.085.494-.098a1.76 1.76 0 0 1 .831.126c.157.062.332.171.494.271l.049.03.096.058c-1.055-3.15-.33-6.766 2.176-9.275 2.597-2.601 6.382-3.286 9.606-2.057a9.01 9.01 0 0 0-2.063-3.194zm2.913 5.595a7.28 7.28 0 0 0-9.218.893c-2.486 2.489-2.8 6.331-.939 9.161a7.33 7.33 0 0 0 .939 1.153c.813.814 2.114 1.598 3.569 1.946 1.443.346 2.971.25 4.323-.586l.041-.026c.13-.081.286-.178.43-.235.252-.1.483-.135.753-.114.153.012.31.053.433.085l.036.009c.525.136.876.227 1.143.277s.356.04.371.036c.297-.061.53-.293.591-.592.003-.016.015-.101-.036-.373s-.141-.619-.277-1.145l-.009-.036c-.032-.123-.073-.28-.085-.434a1.61 1.61 0 0 1 .115-.755c.057-.144.154-.3.235-.429l.026-.041c.842-1.356.951-2.87.615-4.3-.339-1.443-1.121-2.748-1.976-3.604a7.32 7.32 0 0 0-1.08-.893z" />
        
    </g>
    <defs>
        <path id="B" d="M15.167 17.5c0 .644-.522 1.167-1.167 1.167s-1.167-.522-1.167-1.167.522-1.167 1.167-1.167 1.167.522 1.167 1.167z" />
    </defs>
</svg>