<svg xmlns="http://www.w3.org/2000/svg" width="1rem" height="1rem" viewBox='0 0 22 33' fill="currentColor" fill-rule="evenodd">
    <path d="M10 1.042a2.292 2.292 0 1 0 0 4.583 2.292 2.292 0 1 0 0-4.583zM8.959 3.333a1.042 1.042 0 1 1 2.083 0 1.042 1.042 0 1 1-2.083 0zM10 7.708a2.292 2.292 0 1 0 0 4.583 2.292 2.292 0 1 0 0-4.583zM8.959 10a1.042 1.042 0 1 1 2.083 0 1.042 1.042 0 1 1-2.083 0zM10 14.375a2.291 2.291 0 1 0 0 4.583 2.292 2.292 0 1 0 0-4.583zm-1.042 2.292a1.042 1.042 0 1 1 2.083 0 1.042 1.042 0 1 1-2.083 0z" />
</svg>