<svg xmlns="http://www.w3.org/2000/svg" width="1rem" height="1rem" viewBox='0 0 28 28' fill="currentColor" >
    <path d="M17.714 3.051c-.819-.456-1.764-.717-2.777-.717H12.95c-3.435 0-6.093 3.011-5.667 6.419l.093.741a4.26 4.26 0 0 1-1.338 3.659 4.26 4.26 0 0 0-.944 4.989l.121.249A4.63 4.63 0 0 0 9.382 21h9.591a4.45 4.45 0 0 0 3.026-7.706l-.051-.047a4.53 4.53 0 0 1-1.1-1.579 4.54 4.54 0 0 1-.237-.747M10.714 24.5l.35.467a3.94 3.94 0 0 0 6.3 0l.35-.467"  />
    <path d="M22.381 7c0 1.289-1.045 2.333-2.333 2.333S17.714 8.289 17.714 7s1.045-2.333 2.333-2.333S22.381 5.711 22.381 7z"  />
</svg>