<svg xmlns="http://www.w3.org/2000/svg" width="1em" height="1em" viewBox='0 0 22 22' fill="currentColor" fill-rule="evenodd">
    <path d="M6.154.026L4.746 0h-.064L3.274.026c-.399.027-.775.086-1.14.237A3.46 3.46 0 0 0 .263 2.134c-.151.365-.21.742-.237 1.14C0 3.657 0 4.124 0 4.683v.064l.026 1.408c.027.399.086.775.237 1.14a3.46 3.46 0 0 0 1.871 1.871c.365.151.742.21 1.14.237l1.408.026h.064l1.408-.026c.399-.027.775-.086 1.14-.237a3.46 3.46 0 0 0 1.871-1.871c.151-.365.21-.742.237-1.14l.026-1.408v-.064l-.026-1.408c-.027-.399-.086-.775-.237-1.14A3.45 3.45 0 0 0 7.294.263c-.365-.151-.742-.21-1.14-.237zM2.856 2.005c.097-.04.244-.077.547-.098.311-.021.713-.022 1.312-.022l1.312.022c.303.021.45.058.547.098a1.57 1.57 0 0 1 .85.85c.04.097.077.244.098.547.021.311.022.713.022 1.312l-.022 1.312c-.021.303-.058.45-.098.547a1.57 1.57 0 0 1-.85.85c-.097.04-.244.077-.547.098-.311.021-.713.022-1.312.022s-1-.001-1.312-.022c-.303-.021-.45-.058-.547-.098a1.57 1.57 0 0 1-.85-.85c-.04-.097-.077-.244-.098-.547l-.022-1.312.022-1.312c.021-.303.058-.45.098-.547a1.57 1.57 0 0 1 .85-.85zM18.726.026L17.318 0h-.063l-1.408.026c-.399.027-.775.086-1.14.237a3.46 3.46 0 0 0-1.871 1.871c-.151.365-.21.742-.237 1.14-.026.383-.026.849-.026 1.408v.063l.026 1.408c.027.399.086.775.237 1.14a3.46 3.46 0 0 0 1.871 1.871c.365.151.742.21 1.14.237l1.408.026h.063l1.408-.026c.399-.027.775-.086 1.14-.237a3.46 3.46 0 0 0 1.871-1.871c.151-.365.21-.742.237-1.14L22 4.746v-.064l-.026-1.408c-.027-.399-.086-.775-.237-1.14A3.46 3.46 0 0 0 19.866.263c-.365-.151-.742-.21-1.14-.237zm-3.298 1.979c.097-.04.244-.077.547-.098.311-.021.713-.022 1.311-.022l1.312.022c.303.021.45.058.547.098a1.57 1.57 0 0 1 .851.85c.04.097.077.244.098.547.021.311.022.713.022 1.312l-.022 1.312c-.021.303-.058.45-.098.547a1.57 1.57 0 0 1-.851.85c-.097.04-.244.077-.547.098-.311.021-.713.022-1.312.022s-1-.001-1.311-.022c-.303-.021-.45-.058-.547-.098a1.57 1.57 0 0 1-.85-.85c-.04-.097-.077-.244-.098-.547l-.022-1.312.022-1.312c.021-.303.058-.45.098-.547a1.57 1.57 0 0 1 .85-.85zM6.154 12.598l-1.408-.026h-.063l-1.408.026c-.399.027-.775.086-1.14.237a3.46 3.46 0 0 0-1.871 1.871c-.151.365-.21.742-.237 1.14C0 16.229 0 16.695 0 17.254v.063l.026 1.408c.027.399.086.775.237 1.14a3.46 3.46 0 0 0 1.871 1.871c.365.151.742.21 1.14.237L4.683 22h.064l1.408-.026c.399-.027.775-.086 1.14-.237a3.46 3.46 0 0 0 1.871-1.871c.151-.365.21-.742.237-1.14l.026-1.408v-.063l-.026-1.408c-.027-.399-.086-.775-.237-1.14a3.46 3.46 0 0 0-1.871-1.871c-.365-.151-.742-.21-1.14-.237zm-3.298 1.979c.097-.04.244-.077.547-.098.311-.021.713-.022 1.312-.022l1.312.022c.303.021.45.058.547.098a1.57 1.57 0 0 1 .85.85c.04.097.077.244.098.547.021.311.022.713.022 1.311l-.022 1.312c-.021.303-.058.45-.098.547a1.57 1.57 0 0 1-.85.851c-.097.04-.244.077-.547.098-.311.021-.713.022-1.312.022s-1 0-1.312-.022c-.303-.021-.45-.058-.547-.098a1.57 1.57 0 0 1-.85-.851c-.04-.097-.077-.244-.098-.547l-.022-1.312.022-1.311c.021-.303.058-.45.098-.547a1.57 1.57 0 0 1 .85-.85zm15.87-1.979l-1.408-.026h-.063l-1.408.026c-.399.027-.775.086-1.14.237a3.46 3.46 0 0 0-1.871 1.871c-.151.365-.21.742-.237 1.14-.026.383-.026.849-.026 1.408v.063l.026 1.408c.027.399.086.775.237 1.14a3.46 3.46 0 0 0 1.871 1.871c.365.151.742.21 1.14.237l1.408.026h.063l1.408-.026c.399-.027.775-.086 1.14-.237a3.46 3.46 0 0 0 1.871-1.871c.151-.365.21-.742.237-1.14L22 17.318v-.063l-.026-1.408c-.027-.399-.086-.775-.237-1.14a3.46 3.46 0 0 0-1.871-1.871c-.365-.151-.742-.21-1.14-.237zm-3.298 1.979c.097-.04.244-.077.547-.098.311-.021.713-.022 1.311-.022l1.312.022c.303.021.45.058.547.098a1.57 1.57 0 0 1 .851.85c.04.097.077.244.098.547.021.311.022.713.022 1.311l-.022 1.312c-.021.303-.058.45-.098.547a1.57 1.57 0 0 1-.851.851c-.097.04-.244.077-.547.098-.311.021-.713.022-1.312.022s-1 0-1.311-.022c-.303-.021-.45-.058-.547-.098a1.57 1.57 0 0 1-.85-.851c-.04-.097-.077-.244-.098-.547l-.022-1.312.022-1.311c.021-.303.058-.45.098-.547a1.57 1.57 0 0 1 .85-.85z" />
</svg>