<svg xmlns="http://www.w3.org/2000/svg" width="1rem" height="1rem" viewBox='0 0 33 33' fill="currentColor">
    <path d="M25.872 6.476l-6.047-2.687c-2.083-.925-4.566-.925-6.65 0L7.128 6.476c-2.489 1.106-4.034 3.352-4.034 5.863v8.319c0 2.511 1.546 4.756 4.034 5.863l6.049 2.687c1.031.458 2.162.687 3.292.691.011 0 .021.007.032.007s.021-.006.032-.007c1.13-.004 2.261-.234 3.292-.691l6.049-2.687c2.489-1.105 4.034-3.352 4.034-5.863v-8.319c0-2.511-1.545-4.757-4.034-5.863zm-11.859-.8a6.14 6.14 0 0 1 2.487-.518c.854 0 1.709.172 2.487.518l6.047 2.687a5.25 5.25 0 0 1 1.101.661l-3.451 1.535-9.833-4.368 1.161-.514zM7.964 8.361l2.347-1.042 9.833 4.368-1.992.886c-.993.44-2.315.441-3.307 0L6.861 9.023a5.37 5.37 0 0 1 1.103-.663zm.001 16.273c-1.732-.77-2.809-2.293-2.809-3.978v-8.319c0-.579.135-1.134.373-1.651l8.48 3.769c.455.202.952.327 1.46.411v12.867c-.501-.084-.991-.208-1.455-.414l-6.049-2.685zm19.878-3.977c0 1.683-1.077 3.208-2.809 3.978l-6.049 2.687c-.462.205-.954.33-1.455.413V14.867c.509-.084 1.005-.208 1.46-.41l8.48-3.769c.236.517.373 1.072.373 1.651v8.317z"/>
</svg>