<svg xmlns="http://www.w3.org/2000/svg" width="1em" height="1em" viewBox='0 0 33 33' fill="currentColor" >
    <path d="M23.375 5.844H9.625a6.54 6.54 0 0 0-6.531 6.531v8.25a6.54 6.54 0 0 0 6.531 6.531h13.75a6.54 6.54 0 0 0 6.531-6.531v-8.25a6.54 6.54 0 0 0-6.531-6.531zM9.625 7.906h13.75c2.464 0 4.469 2.005 4.469 4.469v.344H5.156v-.344c0-2.464 2.005-4.469 4.469-4.469zm13.75 17.188H9.625c-2.464 0-4.469-2.005-4.469-4.469v-5.844h22.688v5.844c0 2.464-2.005 4.469-4.469 4.469zm-8.594-4.469a1.03 1.03 0 0 1-1.031 1.031H9.625a1.03 1.03 0 1 1 0-2.062h4.125a1.03 1.03 0 0 1 1.031 1.031z" />
</svg>