<svg xmlns="http://www.w3.org/2000/svg" width="1rem" height="1rem" viewBox='0 0 33 33' fill="currentColor" >
    <path d="M14.782 20.627v4.125a1.03 1.03 0 1 1-2.062 0v-4.125a1.03 1.03 0 1 1 2.063 0zm4.469-1.031a1.03 1.03 0 0 0-1.031 1.031v4.125a1.03 1.03 0 1 0 2.063 0v-4.125a1.03 1.03 0 0 0-1.031-1.031zm8.521-2.456l-1.055 8.264a5.17 5.17 0 0 1-5.115 4.503H11.43a5.17 5.17 0 0 1-5.112-4.487l-1.086-8.28c-1.261-.615-2.138-1.896-2.138-3.389 0-2.086 1.695-3.781 3.781-3.781h2.167l3.824-6.374a1.03 1.03 0 0 1 1.768 1.061l-3.189 5.313h10.108l-3.189-5.313a1.03 1.03 0 0 1 .353-1.415c.487-.293 1.121-.135 1.415.353l3.824 6.374h2.17c2.086 0 3.781 1.695 3.781 3.781 0 1.493-.876 2.775-2.135 3.389zm-2.13.393H7.364l1 7.62c.201 1.535 1.519 2.692 3.066 2.692h10.172a3.1 3.1 0 0 0 3.068-2.702l.972-7.611zm2.203-3.781a1.72 1.72 0 0 0-1.719-1.719H6.876a1.72 1.72 0 0 0-1.719 1.719 1.72 1.72 0 0 0 1.719 1.719h19.25a1.72 1.72 0 0 0 1.719-1.719z" />
</svg>