<svg xmlns="http://www.w3.org/2000/svg" width="1em" height="1em" viewBox='0 0 24 24' fill="currentColor" >
    <path d="M8.437 4.297c.364-.058.612-.399.554-.763s-.399-.612-.763-.554A5.11 5.11 0 0 0 3.98 7.228c-.058.364.191.705.554.763s.705-.191.763-.554a3.78 3.78 0 0 1 3.14-3.14z" />
    <path fill-rule="evenodd" d="M9.917.25A8.67 8.67 0 0 0 1.25 8.917a8.67 8.67 0 0 0 8.667 8.667 8.67 8.67 0 0 0 8.667-8.667A8.67 8.67 0 0 0 9.917.25zM2.583 8.917c0-4.05 3.283-7.333 7.333-7.333s7.333 3.283 7.333 7.333-3.283 7.333-7.333 7.333-7.333-3.283-7.333-7.333z" />
    <path d="M17.499 15.556c-.26-.26-.683-.26-.943 0s-.26.683 0 .943l3.555 3.556c.26.26.683.26.943 0s.26-.682 0-.943l-3.555-3.555z" />
</svg>