<svg xmlns="http://www.w3.org/2000/svg" width="1em" height="1em" viewBox='0 0 33 33' fill="currentColor" >
    <path d="M16.5 21.656c-1.02 0-2.017-.302-2.865-.869s-1.509-1.372-1.899-2.314-.492-1.979-.293-2.979.69-1.919 1.411-2.64 1.64-1.212 2.64-1.411 2.037-.097 2.979.293 1.748 1.051 2.314 1.899.869 1.845.869 2.865a5.16 5.16 0 0 1-5.156 5.156zm0-8.25c-.612 0-1.21.181-1.719.521s-.905.823-1.139 1.389-.295 1.187-.176 1.787.414 1.151.847 1.584.984.727 1.584.847 1.222.058 1.788-.176 1.048-.631 1.388-1.139.521-1.107.521-1.719c-.001-.82-.327-1.607-.907-2.187s-1.367-.906-2.187-.907zm.688 16.5h-1.375c-.82-.001-1.607-.327-2.187-.907s-.906-1.367-.907-2.187a.5.5 0 0 0-.303-.468h-.011c-.083-.034-.175-.043-.263-.026s-.169.061-.232.125a3.15 3.15 0 0 1-4.4.029l-.963-.971c-.288-.287-.517-.629-.673-1.005s-.236-.779-.236-1.186.08-.81.236-1.186.385-.718.673-1.005c.068-.07.115-.159.133-.254s.009-.195-.028-.286-.092-.159-.168-.212-.165-.081-.257-.082c-.41.004-.816-.073-1.196-.227s-.725-.381-1.017-.669-.523-.631-.681-1.009-.24-.783-.241-1.193v-1.375c.001-.82.327-1.607.907-2.187s1.367-.906 2.187-.907c.099.002.196-.026.28-.08s.148-.132.187-.223v-.011c.034-.083.043-.174.025-.263s-.061-.169-.124-.233c-.293-.286-.526-.627-.686-1.003s-.244-.781-.247-1.191.076-.815.231-1.194.384-.723.673-1.012l.975-.975c.589-.564 1.372-.879 2.188-.879a3.16 3.16 0 0 1 2.188.879c.069.072.159.122.257.143s.2.012.293-.025a.46.46 0 0 0 .291-.423c-.004-.41.073-.816.226-1.196s.381-.725.668-1.017.63-.523 1.008-.682.783-.241 1.193-.242h1.375c.82.001 1.607.327 2.187.907s.906 1.367.907 2.187a.47.47 0 0 0 .289.458.5.5 0 0 0 .276.033c.093-.015.18-.057.251-.12a3.08 3.08 0 0 1 2.207-.929c.406-.001.809.078 1.185.234s.716.384 1.003.672l.971.963c.287.287.515.628.671 1.004s.235.778.235 1.184-.08.809-.235 1.184-.383.716-.671 1.004a.47.47 0 0 0-.125.529l.008.019c.034.085.092.158.167.209s.164.079.255.08c.41-.005.818.072 1.198.226s.727.382 1.019.67.524.632.682 1.011.24.785.24 1.195v1.375c-.001.82-.327 1.607-.907 2.187s-1.367.906-2.187.907a.47.47 0 0 0-.458.289c-.037.087-.048.183-.033.276a.5.5 0 0 0 .119.251 3.09 3.09 0 0 1 .685 1.004c.16.377.243.782.245 1.191s-.077.815-.233 1.193-.385.722-.674 1.012l-.963.971c-.589.564-1.372.879-2.188.879s-1.599-.315-2.188-.879c-.065-.073-.15-.124-.245-.146s-.194-.015-.285.021-.163.093-.218.169-.086.167-.09.261c.004.41-.074.816-.228 1.196s-.382.725-.67 1.017-.632.523-1.01.681-.784.239-1.194.24zM13.325 24.5c.43.206.794.528 1.051.93s.397.867.405 1.344a1.04 1.04 0 0 0 .291.751 1.04 1.04 0 0 0 .338.234c.127.055.264.083.402.085h1.375a1.03 1.03 0 0 0 1.031-1.031c-.001-.508.149-1.005.43-1.428a2.57 2.57 0 0 1 1.151-.949 2.51 2.51 0 0 1 2.74.55 1.04 1.04 0 0 0 .738.329 1.04 1.04 0 0 0 .405-.074c.129-.051.246-.128.345-.226l.971-.962c.194-.194.303-.457.303-.731s-.109-.537-.303-.731c-.353-.356-.595-.806-.696-1.297a2.58 2.58 0 0 1 .128-1.466v-.019l.01-.023c.189-.461.511-.855.925-1.132s.902-.424 1.4-.422a1.04 1.04 0 0 0 .75-.292 1.04 1.04 0 0 0 .317-.74v-1.375a1.03 1.03 0 0 0-1.031-1.031c-.504.006-.998-.138-1.419-.415s-.75-.673-.944-1.139c-.2-.466-.255-.981-.158-1.478s.341-.954.701-1.311a1.05 1.05 0 0 0 .243-.346c.057-.13.087-.271.088-.413a1.02 1.02 0 0 0-.303-.729l-.962-.971a1.03 1.03 0 0 0-.73-.301c-.136-.001-.27.026-.396.078a1.02 1.02 0 0 0-.334.226 2.58 2.58 0 0 1-2.764.568l-.023-.004-.023-.01c-.461-.189-.855-.511-1.132-.925s-.424-.902-.422-1.4a1.04 1.04 0 0 0-.292-.75 1.04 1.04 0 0 0-.74-.317h-1.375a1.03 1.03 0 0 0-1.031 1.031 2.53 2.53 0 0 1-.422 1.428c-.281.423-.682.751-1.152.943a2.56 2.56 0 0 1-2.761-.539 1.04 1.04 0 0 0-.736-.326 1.04 1.04 0 0 0-.749.297l-.975.975a1.03 1.03 0 0 0-.302.729 1.03 1.03 0 0 0 .302.729c.362.352.611.805.713 1.3s.054 1.009-.139 1.476a1.28 1.28 0 0 1-.065.138c-.208.428-.531.789-.933 1.044s-.866.393-1.342.4a1.04 1.04 0 0 0-.751.291 1.04 1.04 0 0 0-.318.74v1.375a1.03 1.03 0 0 0 1.031 1.031 2.52 2.52 0 0 1 2.362 1.559l.008.018.007.019a2.57 2.57 0 0 1-.55 2.75 1.03 1.03 0 0 0-.322.747 1.02 1.02 0 0 0 .301.731l.971.963c.196.188.458.292.729.292s.533-.105.729-.292a2.53 2.53 0 0 1 2.776-.571c.043.019.085.041.125.065z" />
</svg>