<svg xmlns="http://www.w3.org/2000/svg" width="1rem" height="1rem" viewBox='0 0 22 22' fill="currentColor" >
    <path d="M1.278.217A.75.75 0 0 0 .217.222.75.75 0 0 0 .222 1.283L1.985 3.03l1.538 1.611c.323.402.433.66.463.891a1.73 1.73 0 0 1 0 .437c-.029.231-.14.489-.463.891-.332.414-.823.902-1.538 1.611L.222 10.217a.75.75 0 1 0 1.056 1.065l1.795-1.779 1.62-1.705c.407-.507.702-1.022.781-1.64a3.23 3.23 0 0 0 0-.816c-.079-.618-.374-1.133-.781-1.64-.392-.488-.944-1.035-1.62-1.705L1.278.217z" />
</svg>