<svg xmlns="http://www.w3.org/2000/svg" width="1em" height="1em" viewBox='0 0 20 20' fill="currentColor" >
    <path d="M5.707 1.466c.375-.333.378-.876.006-1.212S4.736-.085 4.362.248L2.525 1.881.865 3.448c-.426.476-.75.976-.837 1.585-.106.744.582 1.252 1.248 1.252H18.8c.528 0 .956-.384.956-.857s-.428-.857-.956-.857H2.312l.044-.05c.33-.369.821-.807 1.554-1.458l1.798-1.598zM.956 13.714c-.528 0-.956.384-.956.857s.428.857.956.857h16.743l-.044.05c-.33.369-.821.807-1.554 1.458l-1.798 1.598c-.375.333-.378.876-.006 1.212s.977.339 1.352.005l1.837-1.632 1.66-1.568c.426-.476.75-.976.837-1.585l.01-.08c.078-.689-.554-1.172-1.194-1.172H.956z" />
</svg>