<svg xmlns="http://www.w3.org/2000/svg" width="1em" height="1em" viewBox='0 0 33 33' fill="currentColor">
    <path d="M23.032 24.252v.697a4.82 4.82 0 0 1-1.25 3.242 1.03 1.03 0 0 1-1.457.072c-.422-.382-.454-1.034-.072-1.458.461-.509.716-1.169.716-1.858v-.697c0-1.869-1.258-3.487-3.061-3.934-.309-.077-.639-.036-.905.114-2.453 1.346-5.441 1.339-7.873.006-.276-.157-.605-.198-.914-.121-1.804.448-3.062 2.065-3.062 3.934v.697c0 .688.254 1.348.716 1.858a1.03 1.03 0 1 1-1.528 1.385 4.82 4.82 0 0 1-1.25-3.242v-.697c0-2.819 1.902-5.259 4.625-5.936.815-.202 1.695-.085 2.415.319 1.804.99 4.041.995 5.867-.006a3.33 3.33 0 0 1 2.406-.314c2.724.681 4.626 3.121 4.626 5.939zm2.249-5.934c-.553-.136-1.112.201-1.25.752s.201 1.112.752 1.25c1.803.447 3.061 2.065 3.061 3.934v.697a2.76 2.76 0 0 1-.716 1.858c-.382.422-.351 1.074.072 1.458a1.03 1.03 0 0 0 1.457-.072 4.82 4.82 0 0 0 1.25-3.242v-.697c0-2.82-1.902-5.261-4.626-5.937zM6.532 10.999a6.54 6.54 0 0 1 6.531-6.531 6.54 6.54 0 0 1 6.531 6.531 6.54 6.54 0 0 1-6.531 6.531 6.54 6.54 0 0 1-6.531-6.531zm2.063 0c0 2.464 2.005 4.469 4.469 4.469s4.469-2.005 4.469-4.469-2.005-4.469-4.469-4.469-4.469 2.005-4.469 4.469zm17.875 0c0-3.289-2.457-6.075-5.716-6.48-.562-.067-1.081.33-1.151.895a1.03 1.03 0 0 0 .895 1.151c2.229.278 3.909 2.185 3.909 4.434 0 1.363-.611 2.635-1.676 3.49a1.03 1.03 0 0 0 .645 1.836c.227 0 .455-.074.645-.227 1.557-1.248 2.449-3.107 2.449-5.098z" />
</svg>